# xmcd CD database file
#
# Track frame offsets:
#	150
#	30341
#	58415
#	97457
#	124869
#	149361
#	174047
#	214668
#	240391
#	258105
#	286856
#	306412
#	326781
#
# Disc length: 4692 seconds
#
# Revision: 0
# Processed by: cddbd v1.5.2PL0 Copyright (c) Steve Scherf et al.
# Submitted via: CDex 1.51
#
DISCID=be12520d
DTITLE=Eddie Davis - The complete cookbook sessions with Shirley Scott - Disc 3
DYEAR=1958
DGENRE=Jazz
TTITLE0=Stardust
TTITLE1=High fry
TTITLE2=Skillet
TTITLE3=Smoke this
TTITLE4=I surrender dear
TTITLE5=Jaws
TTITLE6=The rev
TTITLE7=It could happen to you
TTITLE8=What's new
TTITLE9=The very thought of you
TTITLE10=The man I love
TTITLE11=Smoke gets in your eyes
TTITLE12=I cover the waterfront
EXTD=YEAR: 1958
EXTT0=
EXTT1=
EXTT2=
EXTT3=
EXTT4=
EXTT5=
EXTT6=
EXTT7=
EXTT8=
EXTT9=
EXTT10=
EXTT11=
EXTT12=
PLAYORDER=
